<?xml version="1.0" standalone="no"?>
<!DOCTYPE svg PUBLIC "-//W3C//DTD SVG 1.1//EN" "http://www.w3.org/Graphics/SVG/1.1/DTD/svg11.dtd" >
<svg xmlns="http://www.w3.org/2000/svg" xmlns:xlink="http://www.w3.org/1999/xlink" version="1.1">
<metadata>
Created by FontForge 20170924 at Tue May 26 04:23:27 2020
 By root
</metadata>
<defs>
<font id="BasicsSerifFree-Regular" horiz-adv-x="855" >
  <font-face 
    font-family="Basics Serif Free"
    font-weight="400"
    font-stretch="normal"
    units-per-em="1000"
    panose-1="0 0 0 0 0 0 0 0 0 0"
    ascent="800"
    descent="-200"
    x-height="714"
    cap-height="1048"
    bbox="-125 -385 1391 1048"
    underline-thickness="50"
    underline-position="-125"
    unicode-range="U+0020-007A"
  />
    <missing-glyph />
    <glyph glyph-name="space" unicode=" " horiz-adv-x="250" 
 />
    <glyph glyph-name="A" unicode="A" horiz-adv-x="1026" 
d="M1 2q29 6 58 25.5t43 53.5l4 14h1l252 857h-52q-1 0 -1 1t1 1q13 1 27 3.5t28 5.5q17 3 48.5 11.5t65 20t62 25.5t38.5 27q2 2 2 0l285 -966q15 -34 43.5 -53.5t57.5 -25.5q2 0 2 -1t-1 -1h-347q-2 0 -2 1t1 1q29 7 46 29.5t5 63.5l-56 191h-331l-56 -191l-5 -14
q-5 -34 12 -53.5t43 -25.5q1 0 1 -1t-2 -1h-273q-2 0 -1.5 1t1.5 1zM309 381h275l-137 466z" />
    <glyph glyph-name="B" unicode="B" 
d="M1 1048h365q71 0 132 -17t106 -48.5t70.5 -75.5t25.5 -97q0 -72 -44 -126t-119 -83q52 -8 99 -29.5t82 -57.5t56 -88t21 -122q0 -83 -28.5 -141t-75 -94t-107 -52.5t-123.5 -16.5h-460q-1 0 -1 1t1 1q31 7 55 29.5t24 63.5v857q0 41 -24 64t-55 29q-3 3 0 3zM270 571
v-535q85 0 148 22.5t104 60t61.5 86t20.5 99.5t-20.5 99t-61.5 85.5t-104 60t-148 22.5zM270 607q68 0 113.5 15t73.5 41.5t40 64t12 82.5t-12 82t-40 63.5t-73.5 41.5t-113.5 15v-405z" />
    <glyph glyph-name="C" unicode="C" horiz-adv-x="892" 
d="M568 42q42 4 83.5 28.5t77.5 62t63 84t40 94.5v-190q-18 -19 -45.5 -38t-62 -35t-73.5 -27t-80 -15q-6 0 -13 -1q-13 0 -36 -3q-11 -1 -22 -1.5t-22 -0.5q-89 0 -170.5 31t-146 91.5t-106.5 150t-52 206.5q-11 125 18.5 229t88.5 180t141.5 118t178.5 42h49
q50 0 102 -13.5t94 -41.5t68.5 -69.5t26.5 -98.5q0 -27 -18 -47t-44 -22q-29 0 -51 16t-24 47q-2 26 13.5 47t41.5 26q-12 22 -31 43.5t-44.5 38.5t-58 27.5t-72.5 10.5q-168 0 -240 -133.5t-50 -382.5q20 -234 102.5 -345t233.5 -111q10 0 19.5 0.5t20.5 1.5z" />
    <glyph glyph-name="D" unicode="D" 
d="M795 524q0 -125 -38.5 -222.5t-103.5 -164.5t-151.5 -102t-182.5 -35h-49h-269q-1 0 -1 1t1 1q31 7 55 29.5t24 63.5v857q0 41 -24 64t-55 29q-3 3 0 3h269h49q96 0 182.5 -35t151.5 -102t103.5 -164.5t38.5 -222.5zM270 36q170 0 252 119t82 369t-82 369t-252 119v-976z
" />
    <glyph glyph-name="E" unicode="E" horiz-adv-x="785" 
d="M725 762q-24 52 -58.5 97.5t-81 79.5t-105.5 53.5t-131 19.5h-78v-500q38 0 72.5 3.5t63 14.5t48.5 32t29 56v-283q-9 36 -29 57t-48.5 32t-63 14t-72.5 3v-405h78q72 0 131 19.5t105.5 53.5t81 79.5t58.5 97.5v-286q-19 14 -43 25t-59 11q-20 0 -43 -5.5t-54.5 -12.5
t-74 -12.5t-102.5 -5.5h-348q-1 0 -1 1t1 1q31 7 55 29.5t24 63.5v857q0 41 -24 64t-55 29q-3 3 0 3h348q60 0 102.5 -5.5t74 -12.5t54.5 -12.5t43 -5.5q35 0 59 11t43 25v-286z" />
    <glyph glyph-name="F" unicode="F" horiz-adv-x="785" 
d="M725 762q-24 52 -58.5 97.5t-81 79.5t-105.5 53.5t-131 19.5h-78v-500q38 0 72.5 3.5t63 14.5t48.5 32t29 56v-283q-9 36 -29 57t-48.5 32t-63 14t-72.5 3v-346q0 -41 24 -63.5t55 -29.5q1 0 1 -1t-2 -1h-348q-1 0 -1 1t1 1q31 7 55 29.5t24 63.5v857q0 41 -24 64t-55 29
q-3 3 0 3h348q60 0 102.5 -5.5t74 -12.5t54.5 -12.5t43 -5.5q35 0 59 11t43 25v-286z" />
    <glyph glyph-name="G" unicode="G" horiz-adv-x="997" 
d="M936 459q2 0 2 -1t-1 -1q-31 -7 -55 -30t-24 -63v-79v1v-234h-1v-52q-18 14 -41.5 25t-58.5 11q-20 0 -43 -5.5t-54 -12.5t-73 -12.5t-101 -5.5q-107 0 -192 36.5t-146.5 100.5t-98.5 152t-46 190q-11 125 18.5 229t88.5 180t142 118t179 42h49q50 0 101.5 -13.5
t93.5 -41.5t69 -69.5t27 -98.5q0 -27 -18 -47t-45 -22q-29 0 -50.5 16t-23.5 47q-2 26 13.5 47t40.5 26q-12 22 -31 43.5t-44.5 38.5t-58 27.5t-71.5 10.5q-169 0 -240.5 -133.5t-49.5 -382.5q20 -234 102.5 -345t231.5 -111q6 0 11.5 0.5t11.5 0.5q32 5 61.5 14t55.5 22
v287q0 40 -24 63t-55 30q-1 0 -1 1t1 1h348z" />
    <glyph glyph-name="H" unicode="H" horiz-adv-x="982" 
d="M1 1048h348q1 0 1.5 -1t-1.5 -2q-30 -6 -54.5 -29t-24.5 -64v-405h381v405q0 41 -24 64t-55 29q-3 3 1 3h348q3 0 0 -3q-31 -6 -55 -29t-24 -64v-857q0 -41 24 -63.5t55 -29.5q1 0 1 -1t-1 -1h-348q-2 0 -2 1t1 1q31 7 55 29.5t24 63.5v357h-381v-357q0 -41 24.5 -63.5
t54.5 -29.5q2 0 1.5 -1t-1.5 -1h-348q-1 0 -1.5 1t1.5 1q30 7 54.5 29.5t24.5 63.5v857q0 41 -24.5 64t-54.5 29q-2 1 -1.5 2t1.5 1z" />
    <glyph glyph-name="I" unicode="I" horiz-adv-x="410" 
d="M349 2q2 0 1.5 -1t-1.5 -1h-348q-1 0 -1.5 1t1.5 1q30 7 54.5 29.5t24.5 63.5v857q0 41 -24.5 64t-54.5 29q-2 1 -1.5 2t1.5 1h348q1 0 1.5 -1t-1.5 -2q-30 -6 -54.5 -29t-24.5 -64v-857q0 -41 24.5 -63.5t54.5 -29.5z" />
    <glyph glyph-name="J" unicode="J" horiz-adv-x="478" 
d="M417 1048q3 0 0 -3q-31 -6 -55 -29t-24 -64v-476q0 -139 -27 -251t-83 -191t-144 -121.5t-209 -42.5q52 18 101 57.5t87 110t61 178t23 261.5v475q0 41 -24 64t-55 29q-3 3 1 3h348z" />
    <glyph glyph-name="K" unicode="K" horiz-adv-x="923" 
d="M349 0h-348q-1 0 -1 1t1 1q31 7 55 29.5t24 63.5v857q0 41 -24 64t-55 29q-3 3 0 3h348q4 0 1 -3q-31 -6 -55.5 -29t-24.5 -64v-857q0 -41 24.5 -63.5t55.5 -29.5q1 0 1 -1t-2 -1zM861 2q2 0 2.5 -1t-1.5 -1h-347q-1 0 -1.5 1t0.5 1q13 3 23 10.5t13.5 19t0.5 27.5
t-16 36l-264 428l276 429q13 20 16.5 36t0 27.5t-13 19t-22.5 10.5q-3 3 1 3h253q2 0 -1 -3q-34 -6 -73.5 -29t-65.5 -64l-227 -353l320 -518q26 -34 60.5 -53.5t65.5 -25.5z" />
    <glyph glyph-name="L" unicode="L" horiz-adv-x="787" 
d="M350 36q72 0 130.5 19.5t105 53.5t81.5 79.5t59 97.5l-1 -286q-18 14 -42 25t-59 11q-20 0 -43 -5.5t-54.5 -12.5t-74 -12.5t-102.5 -5.5h-348q-2 0 -2 1t2 1q30 7 54.5 29.5t24.5 63.5v857q0 41 -24.5 64t-54.5 29q-2 1 -2 2t2 1h348q3 0 0 -3q-31 -6 -55 -29t-24 -64
v-916h79z" />
    <glyph glyph-name="M" unicode="M" horiz-adv-x="1153" 
d="M1 1048h270l276 -637l275 637h270q3 0 0 -3q-31 -6 -55 -29t-24 -64v-857q0 -41 24 -63.5t55 -29.5q1 0 1 -1t-1 -1h-348q-2 0 -2 1t1 1q31 7 55 29.5t24 63.5v732l-228 -526q-6 -16 -8 -33t-0.5 -32.5t6.5 -27.5t12 -18h-152l-277 639v-734q0 -41 24.5 -63.5t54.5 -29.5
q2 0 1.5 -1t-1.5 -1h-253q-1 0 -1 1t1 1q31 7 55 29.5t24 63.5v857q0 41 -24 64t-55 29q-3 3 0 3z" />
    <glyph glyph-name="N" unicode="N" horiz-adv-x="930" 
d="M870 2q1 0 1 -1t-1 -1h-174q0 7 -4 20.5t-10 29t-14 32t-16 29.5l-476 781v-797q0 -41 24 -63.5t55 -29.5q1 0 1 -1t-1 -1h-253q-2 0 -2 1t2 1q30 7 54.5 29.5t24.5 63.5v857q0 41 -24.5 64t-54.5 29q-2 1 -2 2t2 1h269l425 -696v600q0 41 -24.5 64t-54.5 29q-2 1 -1.5 2
t1.5 1h253q3 0 0 -3q-31 -6 -55 -29t-24 -64v-857q0 -41 24 -63.5t55 -29.5z" />
    <glyph glyph-name="O" unicode="O" horiz-adv-x="1109" 
d="M1047 565q11 -124 -18.5 -224.5t-88.5 -173t-141.5 -115t-178.5 -50.5q-12 -2 -24.5 -2h-24.5h-49q-96 0 -185 27.5t-159.5 85t-117 147.5t-57.5 214q-8 83 5 156t41.5 134t71 110t95 84.5t112.5 57t123 27.5l48 5h49q95 0 180.5 -28.5t152.5 -88t111 -150.5t55 -216z
M568 36q169 14 240.5 139t49.5 374q-11 125 -37 212.5t-69 143.5t-104.5 81.5t-144.5 25.5q-169 -15 -250.5 -143.5t-59.5 -378.5q20 -234 102.5 -345t232.5 -111q10 0 19.5 0.5t20.5 1.5z" />
    <glyph glyph-name="P" unicode="P" 
d="M1 1048h460q63 0 123 -16.5t107 -53t75.5 -94t28.5 -140.5q0 -82 -28.5 -140t-75.5 -94.5t-107 -53t-123 -16.5h-191v-345q0 -41 24.5 -63.5t54.5 -29.5q2 0 1.5 -1t-1.5 -1h-348q-1 0 -1.5 1t1.5 1q30 7 54.5 29.5t24.5 63.5v857q0 41 -24.5 64t-54.5 29q-2 1 -1.5 2
t1.5 1zM604 744q0 51 -20.5 99.5t-62 86t-104 60t-147.5 22.5v-536q85 0 147.5 23t104 60.5t62 85.5t20.5 99z" />
    <glyph glyph-name="Q" unicode="Q" horiz-adv-x="1110" 
d="M733 -290q33 0 67 5.5t63.5 19t52.5 36t35 56.5q-11 -55 -34 -95t-53.5 -66t-65.5 -38.5t-71 -12.5q-45 0 -88.5 20t-85.5 49.5t-83 64t-81 64t-79 49.5t-77 20q-33 0 -64 -10.5t-56 -35.5q-2 -2 -2 -3q-27 -30 -24 -78q-18 39 -16.5 77.5t20.5 69.5q14 30 50 50t79.5 33
t86.5 20t71 11q-73 17 -137.5 53t-114.5 92.5t-82 134.5t-41 178q-11 125 22 226t96 174t149 116.5t181 52.5l48 5h49q95 0 180.5 -28.5t152.5 -88t111 -150.5t55 -216q11 -124 -18.5 -224.5t-89 -173t-142 -115t-178.5 -50.5q-12 -2 -24.5 -2h-24.5q-45 -4 -105.5 -17
t-123.5 -33q51 -26 102 -66.5t100.5 -79t97 -66.5t92.5 -28zM192 490q20 -234 102.5 -345t232.5 -111q10 0 19.5 0.5t20.5 1.5q170 14 241.5 139t49.5 374q-11 125 -37 212.5t-69.5 143.5t-105 81.5t-144.5 25.5q-169 -15 -250.5 -143.5t-59.5 -378.5z" />
    <glyph glyph-name="R" unicode="R" horiz-adv-x="970" 
d="M1 0q-1 0 -1.5 1t1.5 1q30 7 54.5 29.5t24.5 63.5v857q0 41 -24.5 64t-54.5 29q-2 1 -1.5 2t1.5 1h460q63 0 123 -16.5t107 -53t75.5 -94t28.5 -140.5q0 -82 -28.5 -140t-75.5 -94.5t-107 -53t-123 -16.5h-107q121 0 210.5 -23.5t148.5 -68t88 -108.5t29 -145
q0 -41 24.5 -63.5t54.5 -29.5q1 0 1 -1t-1 -1h-348q-1 0 -1.5 1t1.5 1q30 7 54.5 29.5t24.5 63.5q0 149 -72 233t-214 112h-84v-345q0 -41 24.5 -63.5t54.5 -29.5q2 0 1.5 -1t-1.5 -1h-348zM270 476q85 0 147.5 23t104 60.5t62 85.5t20.5 99t-20.5 99.5t-62 86t-104 60
t-147.5 22.5v-536z" />
    <glyph glyph-name="S" unicode="S" horiz-adv-x="773" 
d="M357 619q104 -14 172.5 -49t109.5 -81.5t57.5 -99.5t16.5 -103q0 -66 -26 -118.5t-66 -90t-87 -57.5t-89 -20h-36q-60 0 -102.5 5.5t-74 12.5t-54.5 12.5t-43 5.5q-35 0 -59 -11t-43 -25v286q24 -52 58.5 -97.5t81 -79.5t105.5 -53.5t131 -19.5h36q16 0 47.5 9.5t63 32.5
t55 60.5t23.5 93.5q0 36 -19.5 67.5t-56 57.5t-87.5 44.5t-114 27.5q-104 14 -172.5 49t-109.5 81.5t-58 99.5t-17 103q0 66 26 118.5t66 89.5t86.5 57.5t88.5 20.5h37q59 0 102 -5.5t74.5 -12.5t54.5 -12.5t43 -5.5q35 0 59 11t42 25l1 -286q-24 52 -59 97.5t-81.5 79.5
t-105 53.5t-130.5 19.5h-36q-16 0 -47.5 -9.5t-62.5 -32.5t-54.5 -60.5t-23.5 -93.5q0 -36 19.5 -67.5t55.5 -57.5t87.5 -44.5t114.5 -27.5z" />
    <glyph glyph-name="T" unicode="T" horiz-adv-x="1002" 
d="M0 762l1 286q18 -14 42 -25t59 -11q20 0 43 5.5t54.5 12.5t74 12.5t102.5 5.5h190q60 0 102.5 -5.5t74 -12.5t54.5 -12.5t43 -5.5q35 0 59.5 11t42.5 25v-286q-24 52 -58.5 97.5t-81 79.5t-105.5 53.5t-131 19.5v-917q0 -41 24.5 -63.5t54.5 -29.5q2 0 2 -1t-2 -1h-348
q-1 0 -1 1t1 1q31 7 55 29.5t24 63.5v917q-72 0 -130.5 -19.5t-105 -53.5t-81.5 -79.5t-59 -97.5z" />
    <glyph glyph-name="U" unicode="U" horiz-adv-x="983" 
d="M1 1048h348q3 0 0 -3q-30 -6 -54.5 -29t-24.5 -64v-485q0 -99 12 -178.5t40 -136t74 -86.5t113 -30t112.5 30t73.5 86.5t40 136t12 178.5v485q0 41 -24 64t-55 29q-3 3 1 3h252q4 0 1 -3q-31 -6 -55 -29t-24 -64v-485q0 -117 -17 -204.5t-48.5 -146t-75.5 -87.5t-98 -29
h-190q-72 0 -133 29t-105.5 87.5t-70 146t-25.5 204.5v485q0 41 -24.5 64t-54.5 29q-2 1 -1.5 2t1.5 1z" />
    <glyph glyph-name="V" unicode="V" horiz-adv-x="932" 
d="M1 1048h348q1 0 1.5 -1t-1.5 -2q-29 -6 -46 -29t-5 -63v-1l185 -629l190 644q5 34 -12 53.5t-43 24.5q-3 3 1 3h252q3 0 0 -3q-32 -6 -63.5 -29t-43.5 -63v-1l-281 -952h-95l-281 952q-11 41 -42.5 64t-63.5 29q-3 3 0 3z" />
    <glyph glyph-name="W" unicode="W" horiz-adv-x="1401" 
d="M1 1048h348q4 0 1 -3q-29 -6 -46 -29t-6 -63v-1l186 -629l139 472l-46 157q-12 41 -43.5 64t-63.5 29q-3 3 0 3h348q4 0 1 -3q-29 -6 -46.5 -29t-5.5 -63v-1l186 -629l189 644q5 34 -11.5 53.5t-42.5 24.5q-2 1 -1.5 2t1.5 1h252q3 0 0 -3q-32 -6 -63.5 -29t-43.5 -63v-1
l-280 -952h-96l-186 633l-187 -633h-95l-281 952q-12 41 -43 64t-64 29q-3 3 0 3z" />
    <glyph glyph-name="X" unicode="X" horiz-adv-x="1110" 
d="M0 1048h347q1 0 2 -1t0 -2q-26 -6 -35 -29t18 -64l193 -286l192 286q27 41 18.5 64t-34.5 29q-3 3 1 3h252q2 0 -1 -3q-32 -5 -67.5 -24.5t-63.5 -53.5l-250 -372l345 -514q28 -34 63.5 -53.5t67.5 -25.5q2 0 2.5 -1t-1.5 -1h-347q-1 0 -1.5 1t0.5 1q26 7 34.5 29.5
t-18.5 63.5l-240 358l-240 -358q-27 -41 -18.5 -63.5t34.5 -29.5q2 0 1 -1t-2 -1h-252q-1 0 -0.5 1t1.5 1q32 6 67.5 25.5t63.5 53.5l297 443l-297 443q-28 34 -63.5 53.5t-67.5 24.5q-3 3 -1 3z" />
    <glyph glyph-name="Y" unicode="Y" horiz-adv-x="1049" 
d="M0 1048h348q5 0 2 -3q-27 -6 -37 -29t15 -64l214 -350l223 365q16 34 5 53.5t-35 24.5q-3 3 2 3h251q2 0 -1 -3q-32 -5 -66.5 -24.5t-59.5 -53.5l-271 -443v-429q0 -41 24 -63.5t55 -29.5q1 0 1 -1t-2 -1h-348q-1 0 -1 1t1 1q31 7 55 29.5t24 63.5v429l-262 428
q-25 41 -63 64t-73 29q-3 3 -1 3z" />
    <glyph glyph-name="Z" unicode="Z" horiz-adv-x="856" 
d="M420 36q72 0 130.5 19.5t105 53.5t81.5 79.5t59 97.5l-1 -286q-18 14 -42 25t-59 11q-20 0 -43 -5.5t-54.5 -12.5t-74 -12.5t-102.5 -5.5h-420l584 1012h-207q-72 0 -130.5 -19.5t-105 -53.5t-81.5 -79.5t-59 -97.5l1 286q18 -14 42 -25t59 -11q20 0 43 5.5t54.5 12
t74 12.5t101.5 6h420l-585 -1012h209z" />
    <glyph glyph-name="a" unicode="a" horiz-adv-x="724" 
d="M664 59q-9 -15 -24.5 -26t-34.5 -18.5t-38.5 -11t-34.5 -3.5h-59q-20 0 -37.5 7.5t-30.5 20.5t-20.5 30.5t-7.5 36.5q-25 -49 -68.5 -72t-96.5 -23q-54 0 -93.5 17.5t-66 46t-39.5 65t-13 75.5q0 52 21.5 86t55.5 58t76 41t84 35t79 41t61 59q0 33 -7.5 61.5t-21 49.5
t-32.5 32.5t-41 11.5q-38 0 -72 -21.5t-52 -60.5q26 -3 43.5 -22.5t17.5 -46.5q0 -29 -20 -48.5t-49 -19.5q-27 0 -46.5 18t-21.5 44q-5 45 13.5 80.5t49.5 60t68 38t69 13.5h61q49 0 91.5 -15t73.5 -40.5t49 -60t18 -74.5v-429q0 -16 13 -28.5t32 -12.5q11 0 24 6.5
t26 22.5zM377 488q-9 -19 -26.5 -35.5t-38.5 -32.5t-43.5 -33.5t-41 -40.5t-30 -52t-11.5 -69q0 -31 11 -55t28.5 -40t39 -24t42.5 -8q22 0 40.5 8t29.5 25v357z" />
    <glyph glyph-name="b" unicode="b" horiz-adv-x="837" 
d="M422 0q-20 0 -41 1t-40 3t-35 4.5t-27 5.5q-28 8 -47 15t-42 7q-35 0 -58.5 -11t-42.5 -25v952h-87q-2 0 -2 2t2 2q29 4 68 12t78 20t74 26.5t55 32.5q2 2 2 -1v-387q5 8 19.5 18t34 18t42.5 13.5t47 5.5q98 0 165.5 -30.5t109.5 -80.5t61 -114t19 -132t-19 -132
t-61 -114t-109.5 -80.5t-165.5 -30.5zM422 36q88 0 126 80t38 241t-38 241.5t-126 80.5q-24 0 -49 -13t-45 -36.5t-33.5 -55t-15.5 -67.5v-448q13 -6 30.5 -10t37 -7t39.5 -4.5t36 -1.5z" />
    <glyph glyph-name="c" unicode="c" horiz-adv-x="709" 
d="M415 106q61 0 111 24.5t97 86.5l26 -25q-10 -28 -31 -59t-51 -58t-68.5 -47t-83.5 -27q-8 -1 -16.5 -1h-16.5q-68 0 -133.5 22.5t-118 64.5t-87 102.5t-41.5 135.5q-9 90 20 162t82 122.5t123 77.5t143 27q38 0 77.5 -13.5t70.5 -38t48.5 -60t12.5 -80.5
q-2 -26 -21.5 -44t-46.5 -18q-29 0 -49 19.5t-20 48.5q0 32 22 50.5t53 18.5q-21 39 -60.5 60.5t-86.5 21.5q-29 -1 -64 -21.5t-63.5 -62t-44 -104.5t-6.5 -149q5 -47 25.5 -89.5t51 -75t69 -52t77.5 -19.5z" />
    <glyph glyph-name="d" unicode="d" horiz-adv-x="828" 
d="M767 2q1 0 1 -1t-1 -1h-270v14v0v41q-5 -8 -19 -17.5t-33.5 -18t-42.5 -14t-47 -5.5q-98 0 -165.5 30.5t-109.5 80.5t-61 114t-19 132t19 132t61 114t109.5 80.5t165.5 30.5q24 0 47 -5.5t42.5 -13.5t33.5 -17.5t19 -17.5v292h-86q-2 0 -2 2t2 2q27 4 65 12t77.5 19.5
t75.5 26.5t57 33q2 2 2 -1v-952q0 -40 24.5 -63t54.5 -29zM355 36q24 0 49 13t45 36.5t33.5 55t14.5 67.5v299q-1 36 -14.5 67.5t-33.5 55t-45 36.5t-49 13q-88 0 -126 -80.5t-38 -241.5t38 -241t126 -80z" />
    <glyph glyph-name="e" unicode="e" horiz-adv-x="708" 
d="M648 192q-10 -28 -31 -59t-51 -58t-68.5 -47t-83.5 -27q-8 -1 -16.5 -1h-16.5q-68 0 -133.5 22.5t-118 64.5t-87 102.5t-41.5 135.5q-5 53 7 102.5t36.5 92.5t58 78.5t73 61t82 40t83.5 14.5q46 0 99.5 -14.5t99.5 -47.5t76.5 -87t30.5 -134h-1v-36h-458q0 -26 3 -53
q5 -47 25.5 -89.5t51 -75t69 -52t77.5 -19.5q61 0 111 24.5t97 86.5zM342 679q-25 -1 -51 -17.5t-47.5 -47.5t-36.5 -77t-18 -106h267q0 82 -11 130.5t-28 74.5t-37 34.5t-38 8.5z" />
    <glyph glyph-name="f" unicode="f" horiz-adv-x="501" 
d="M1 2q31 7 55 29.5t24 63.5v595q0 6 0.5 12t0.5 12h-80v36h83q7 59 30 113t65.5 95t105.5 65.5t150 24.5q38 0 76 -13.5t67 -38.5t45.5 -60.5t11.5 -79.5q-2 -27 -22 -45t-46 -18q-29 0 -49 20t-20 49t20 48.5t49 19.5h8q-19 39 -56 60.5t-84 21.5q-79 0 -117.5 -65.5
t-45.5 -196.5h79v-36h-80v-619q0 -41 24 -63.5t55 -29.5q1 0 1 -1t-1 -1h-348q-2 0 -2 1t1 1z" />
    <glyph glyph-name="g" unicode="g" horiz-adv-x="705" 
d="M348 107q92 0 158.5 -32.5t102 -81t36 -105.5t-40.5 -105.5t-127 -81t-223 -32.5q-72 0 -119.5 26.5t-73 64t-28.5 78t14 69.5q8 17 25 28.5t37 11.5q28 0 48 -20t20 -48q0 -22 -12.5 -39t-32.5 -24q-11 -7 -15 -25.5t7 -37.5t41.5 -34t88.5 -15q86 0 143.5 16t88.5 40
t36 52.5t-13 52.5t-58.5 40t-101.5 16q-78 0 -133 18.5t-91.5 47.5t-55 65.5t-24 72.5t1 68.5t20.5 52.5q-27 31 -44 70t-22 85q-6 64 16 119t61.5 96.5t93 66.5t111.5 30q7 1 14 1h14q59 0 109 -19q19 54 54 83t73 29q29 0 49 -20t20 -49t-20 -49t-49 -20q-14 0 -27 6
t-23 16q-14 14 -27 14q-9 0 -15.5 -5t-11.5 -13q69 -30 116.5 -89.5t55.5 -143.5q6 -64 -16 -119t-61.5 -96t-93 -66.5t-111.5 -30.5q-7 -1 -13.5 -1h-13.5q-54 0 -105.5 17.5t-93.5 49.5q-2 -18 10.5 -36.5t41.5 -32.5t76 -23t113 -9zM286 684q-33 -3 -60 -20.5t-45 -51
t-25.5 -83t-1.5 -115.5q5 -63 20 -109t37 -76t50 -44.5t59 -14.5h11q33 3 59.5 21t44.5 51.5t26 83t2 115.5q-6 63 -21 109t-36.5 76t-49 44.5t-58.5 14.5q-3 0 -6 -0.5t-6 -0.5z" />
    <glyph glyph-name="h" unicode="h" horiz-adv-x="853" 
d="M2 956q26 4 64.5 12t78.5 19.5t76 26.5t56 33q2 2 2 -1v-387q5 8 16 18t26.5 18t35.5 13.5t44 5.5q88 0 147.5 -32.5t96 -83.5t52.5 -114.5t16 -126.5v-262q0 -41 24.5 -63.5t54.5 -29.5q2 0 1.5 -1t-1.5 -1h-348q-1 0 -1.5 1t1.5 1q30 7 54 29.5t25 63.5v262
q0 89 -7.5 150t-22.5 99.5t-38 55.5t-54 17q-21 0 -42 -13t-38 -36.5t-28.5 -55t-13.5 -67.5v-413q1 -40 25 -63t54 -29q2 0 2 -1t-2 -1h-348q-1 0 -1 1t1 1q31 7 55 29.5t24 63.5v857h-87q-2 0 -2 2t2 2z" />
    <glyph glyph-name="i" unicode="i" horiz-adv-x="419" 
d="M9 0q-1 0 -1 1t1 1q31 7 55 29.5t24 63.5v524h-86q-2 0 -2.5 2t1.5 2q27 4 65.5 12t78 19.5t75.5 26.5t57 33q2 2 2 -1v-619q0 -40 24 -63t55 -29q1 0 1 -1t-1 -1h-349zM161 762q24 0 45.5 9.5t37.5 25t25.5 37t9.5 45.5t-9.5 45.5t-25.5 37.5t-37.5 25.5t-45.5 9.5
t-45.5 -9.5t-37.5 -25.5t-25 -37.5t-9 -45.5t9 -45.5t25 -37t37.5 -25t45.5 -9.5z" />
    <glyph glyph-name="j" unicode="j" horiz-adv-x="335" 
d="M275 713v-713q0 -68 -19 -132t-61 -113.5t-109.5 -80t-164.5 -30.5v36q87 0 125.5 80t38.5 241v618h-87q-2 0 -2 2t2 2q27 4 65.5 12t78 19.5t75 26.5t56.5 33q2 2 2 -1zM157 762q24 0 45.5 9.5t37.5 25t25.5 37t9.5 45.5t-9.5 45.5t-25.5 37.5t-37.5 25.5t-45.5 9.5
t-45.5 -9.5t-37.5 -25.5t-25 -37.5t-9 -45.5t9 -45.5t25 -37t37.5 -25t45.5 -9.5z" />
    <glyph glyph-name="k" unicode="k" horiz-adv-x="858" 
d="M797 2q1 0 1.5 -1t-0.5 -1h-348q-1 0 -2 1t0 1q13 3 22 10.5t12 19t-1.5 27.5t-18.5 36l-182 262h-1v-262q1 -40 25 -63t54 -29q2 -1 1.5 -2t-1.5 -1h-347q-1 0 -1.5 1t1.5 1q28 6 50.5 25.5t27.5 53.5v871h-87q-2 0 -2 2t2 2q26 4 64.5 12t78.5 19.5t76 26.5t56 33
q2 2 2 -1v-595l122 120q31 30 48.5 54t24 41.5t3.5 28.5t-14 16q-1 0 0.5 1.5t2.5 1.5h252q2 0 0.5 -1.5t-3.5 -1.5q-36 -8 -88 -37.5t-109 -80.5l-126 -124l261 -375q29 -40 69 -63t75 -29z" />
    <glyph glyph-name="l" unicode="l" horiz-adv-x="419" 
d="M358 2q2 0 1.5 -1t-1.5 -1h-347q-1 0 -1.5 1t1.5 1q28 6 50.5 25.5t27.5 53.5v871h-87q-2 0 -2 2t2 2q26 4 64.5 12t78.5 19.5t76 26.5t56 33q2 2 2 -1v-952q1 -40 25 -63t54 -29z" />
    <glyph glyph-name="m" unicode="m" horiz-adv-x="1288" 
d="M1 623q27 4 65.5 12t78 19.5t75.5 26.5t57 33q2 2 2 -1v-81q6 17 19.5 31.5t31 26t36.5 18t35 6.5q93 0 154.5 -36t97.5 -92q34 66 83.5 97t97.5 31q88 0 147.5 -32.5t96 -83.5t52.5 -114.5t16 -126.5v-262q1 -41 25 -64t54 -29q2 0 2 -1t-2 -1h-348q-1 0 -1 1t1 1
q30 6 54.5 29t24.5 64v262q0 89 -7.5 150t-22.5 99t-38 55t-54 17q-25 0 -50 -17t-44 -48t-28.5 -75.5t-4.5 -100.5q6 -40 6 -80v-262q0 -41 24 -64t55 -29q1 0 1 -1t-2 -1h-348q-1 0 -1 1t1 1q31 6 55 29t24 64v262q0 89 -7.5 150t-22.5 99t-38 55t-53 17q-21 0 -42 -17.5
t-38.5 -45.5t-28.5 -64t-13 -72v-385q0 -40 24.5 -63t54.5 -29q1 0 1 -1t-1 -1h-348q-2 0 -2 1t1 1q31 7 55 29.5t24 63.5v524h-86q-2 0 -2.5 2t1.5 2z" />
    <glyph glyph-name="n" unicode="n" horiz-adv-x="852" 
d="M2 623q26 4 64.5 12t79 19.5t76 26.5t55.5 33q2 2 2 -1v-81q6 17 20 31.5t31.5 26t36 18t34.5 6.5q88 0 147.5 -32.5t96 -83.5t52.5 -114.5t16 -126.5v-262q0 -41 24.5 -64t54.5 -29q1 0 1 -1t-1 -1h-348q-1 0 -1.5 1t1.5 1q30 6 54 29t25 64v262q0 89 -7.5 150t-22.5 99
t-38 55t-54 17q-21 0 -42 -17.5t-38 -45.5t-28.5 -64t-13.5 -72v-385q1 -40 25 -63t54 -29q2 0 1.5 -1t-1.5 -1h-348q-1 0 -1 1t1 1q30 7 54.5 29.5t24.5 63.5v524h-87q-2 0 -2 2t2 2z" />
    <glyph glyph-name="o" unicode="o" horiz-adv-x="825" 
d="M763 390q7 -80 -19.5 -148t-76 -119.5t-116 -83t-138.5 -37.5q-8 -1 -17 -1.5t-18 -0.5q-67 0 -132 22.5t-117 64.5t-86.5 102t-41.5 135q-7 80 20 148t76.5 119t115.5 83t138 38q9 1 17.5 1.5t17.5 0.5q68 0 133 -22.5t117 -64.5t86.5 -102t40.5 -135zM410 38
q41 3 74.5 25.5t55.5 64t31.5 103t2.5 143.5q-7 78 -25 135t-45 94.5t-61.5 55.5t-72.5 18q-5 0 -8.5 -0.5t-7.5 -0.5q-40 -3 -73.5 -25.5t-56 -64t-32 -103t-2.5 -143.5q7 -78 25.5 -135t45.5 -94.5t61 -55.5t72 -18q5 0 8.5 0.5t7.5 0.5z" />
    <glyph glyph-name="p" unicode="p" horiz-adv-x="836" 
d="M1 623q27 4 65.5 12t78 19.5t75.5 26.5t57 33q2 2 2 -1v-54q5 8 19.5 18t34 18t42.5 13.5t47 5.5q98 0 165.5 -30.5t109.5 -80.5t60.5 -114t18.5 -132t-18.5 -132t-60.5 -114t-109.5 -80.5t-165.5 -30.5q-24 0 -47 5.5t-42.5 14t-34 18t-19.5 17.5v-294q0 -40 24.5 -63
t54.5 -29q1 0 1 -1t-1 -1h-347q-2 0 -2 1t1 1q28 5 50.5 24.5t27.5 53.5v872h-86q-2 0 -2.5 2t1.5 2zM279 208q2 -36 15.5 -67.5t33.5 -55t45 -36.5t49 -13q87 0 125.5 80t38.5 241t-38.5 241t-125.5 80q-24 0 -49 -13t-45 -36t-33.5 -54.5t-15.5 -68.5v-298z" />
    <glyph glyph-name="q" unicode="q" horiz-adv-x="827" 
d="M0 356q0 68 19 132t61 114t109.5 80.5t164.5 30.5q44 0 80.5 -5.5t66.5 -12.5t55.5 -12.5t48.5 -5.5q17 0 32.5 5.5t26.5 12.5q13 8 24 18v-967q5 -34 27.5 -53.5t50.5 -24.5q1 0 1 -1t-2 -1h-347q-1 0 -1 1t1 1q30 6 54.5 29t24.5 63v294q-5 -8 -19.5 -17.5t-34 -18
t-42.5 -14t-47 -5.5q-97 0 -164.5 30.5t-109.5 80.5t-61 114t-19 132zM354 35q24 0 49 13t45 36.5t33.5 55t15.5 67.5v298q-2 37 -15.5 68.5t-33.5 54.5t-45 36t-49 13q-87 0 -125.5 -80t-38.5 -241t38.5 -241t125.5 -80z" />
    <glyph glyph-name="r" unicode="r" horiz-adv-x="692" 
d="M1 623q27 4 65.5 12t78 19.5t75.5 26.5t57 33q0 1 1 0.5t1 -1.5v-53q5 8 18.5 17.5t34 17.5t46 13.5t53.5 5.5q32 0 69 -13.5t68 -38.5t49.5 -60.5t13.5 -79.5q-2 -26 -22 -44t-47 -18q-29 0 -48.5 19.5t-19.5 48.5q0 27 17 46.5t43 22.5q-17 38 -51 59.5t-72 22.5
q-28 0 -55 -13.5t-48 -36.5t-34 -54.5t-15 -67.5v-413q0 -40 24 -63t55 -29q1 0 1 -1t-1 -1h-349q-1 0 -1 1t1 1q31 7 55 29.5t24 63.5v524h-86q-2 0 -2.5 2t1.5 2z" />
    <glyph glyph-name="s" unicode="s" horiz-adv-x="576" 
d="M258 452q54 -10 101 -30t82 -51t55 -72.5t20 -94.5q0 -46 -18 -83.5t-55 -64.5t-93 -41.5t-132 -14.5q-25 0 -44.5 5.5t-35 12.5t-29 12.5t-27.5 5.5q-27 0 -39.5 -12.5t-26.5 -23.5l-1 286q24 -52 41.5 -97.5t38 -79.5t49 -53.5t74.5 -19.5t77.5 15t48.5 38t20 50.5
t-7.5 52.5t-35.5 44.5t-63 25.5q-54 10 -101 30.5t-82 51.5t-55 72.5t-20 94.5q0 92 73.5 147.5t224.5 55.5q26 0 45 -5.5t34.5 -12.5t29 -12.5t27.5 -5.5q27 0 39.5 12.5t26.5 23.5l1 -285q-24 52 -41.5 97.5t-38 79.5t-48.5 53.5t-75 19.5q-46 0 -77.5 -15t-48.5 -38
t-20 -50.5t7.5 -53t35.5 -44.5t63 -26z" />
    <glyph glyph-name="t" unicode="t" horiz-adv-x="417" 
d="M357 59q-8 -15 -24 -26t-34.5 -18.5t-38 -11t-34.5 -3.5h-59q-20 0 -37.5 7.5t-30.5 20.5t-20.5 30.5t-7.5 36.5v619h-71v36q35 5 73.5 17.5t73.5 32t64.5 46.5t46.5 60q1 2 2.5 1.5t1.5 -2.5v-155h88v-36h-88v-619q0 -16 13 -28.5t31 -12.5q12 0 25 6.5t25 22.5z" />
    <glyph glyph-name="u" unicode="u" horiz-adv-x="861" 
d="M800 95q2 0 2 -1.5t-2 -2.5q-27 -3 -65.5 -10.5t-78 -19.5t-75.5 -27t-58 -33v79q-7 -16 -21 -30.5t-31 -25.5t-35.5 -17.5t-34.5 -6.5q-88 0 -147.5 32.5t-96 84t-52.5 115t-16 125.5v1v0v261h-87q-2 0 -2 2t2 2q26 4 64.5 12t79 19.5t76 26.5t55.5 33q2 2 2 -1v-355
q0 -88 7.5 -149.5t22.5 -99.5t38 -55.5t54 -17.5q20 0 40.5 16t37 42t28.5 59.5t16 68.5v397h-87q-2 0 -2 2t2 2q27 4 65.5 12t78 19.5t75 26.5t56.5 33q2 2 2 -1v-618h87z" />
    <glyph glyph-name="v" unicode="v" horiz-adv-x="943" 
d="M0 714h347q2 0 2.5 -1t-0.5 -1q-26 -5 -40 -24.5t-4 -53.5l184 -418l178 403q17 41 3 64t-41 29q-2 0 -1.5 1t2.5 1h253q1 0 0.5 -1t-1.5 -1q-33 -6 -67.5 -29t-52.5 -63l-273 -620h-95l-273 620q-18 40 -52.5 63t-67.5 29q-1 0 -1.5 1t0.5 1z" />
    <glyph glyph-name="w" unicode="w" horiz-adv-x="1450" 
d="M1 714h347q1 0 1.5 -1t-0.5 -1q-25 -5 -39.5 -24.5t-3.5 -53.5l184 -418l158 359l-20 45q-18 40 -52 63t-67 29q-2 0 -2 1t1 1h347q1 0 1.5 -1t-0.5 -1q-25 -5 -39.5 -24.5t-3.5 -53.5l184 -418l177 403q18 41 4 64t-42 29q-1 0 -0.5 1t1.5 1h253q1 0 1 -1t-2 -1
q-33 -6 -67 -29t-52 -63l-273 -620h-96l-205 467l-206 -467h-96l-273 620q-18 40 -52 63t-67 29q-2 0 -2 1t1 1z" />
    <glyph glyph-name="x" unicode="x" horiz-adv-x="879" 
d="M0 714h348q1 0 1.5 -1t-0.5 -1q-24 -5 -33.5 -24.5t7.5 -53.5l111 -169l111 169q17 34 7.5 53.5t-33.5 24.5q-1 0 -0.5 1t1.5 1h252q2 0 1.5 -1t-2.5 -1q-35 -6 -74 -29t-66 -63l-149 -227l206 -312q27 -34 62.5 -53.5t67.5 -25.5q1 0 1.5 -1t-0.5 -1h-347q-1 0 -2 1t0 1
q13 3 22.5 10t13 18.5t0 27t-16.5 35.5l-103 156l-103 -156q-25 -40 -15.5 -62.5t35.5 -28.5q1 0 0 -1t-2 -1h-252q-1 0 -0.5 1t1.5 1q32 6 67.5 25.5t62.5 53.5l159 240l-198 299q-13 20 -30 35.5t-35.5 27t-37.5 19t-36 10.5q-2 0 -2.5 1t0.5 1z" />
    <glyph glyph-name="y" unicode="y" horiz-adv-x="945" 
d="M-19 -142q0 19 7.5 36.5t20.5 30.5t30.5 20.5t37.5 7.5t37 -7.5t30 -20.5t20.5 -30.5t7.5 -36.5q0 -20 -7.5 -37.5t-20.5 -30t-30 -20t-37 -7.5q-9 0 -13 1q16 -30 42.5 -46t59.5 -16q27 0 51.5 16t46.5 41.5t42 58t36.5 65.5t30 64t23.5 53l-273 620q-18 40 -52.5 63
t-67.5 29q-1 0 -1.5 1t0.5 1h347q2 0 2.5 -1t-0.5 -1q-26 -5 -40 -24.5t-4 -53.5l184 -418l177 403q18 41 4 64t-42 29q-1 0 -0.5 1t2.5 1h252q2 0 1.5 -1t-1.5 -1q-33 -6 -67.5 -29t-52.5 -63l-273 -620q-12 -27 -28 -62t-37.5 -72t-47.5 -73t-58.5 -64t-70.5 -45.5
t-83 -17.5q-32 0 -66.5 13.5t-62.5 38t-44.5 60t-11.5 80.5z" />
    <glyph glyph-name="z" unicode="z" horiz-adv-x="634" 
d="M372 36q46 0 74.5 19.5t48.5 53.5t37.5 79.5t41.5 97.5v-286q-7 6 -13.5 12t-13.5 11.5t-16 9t-23 3.5t-27.5 -5.5t-29 -12.5t-34.5 -12.5t-45 -5.5h-372l364 679h-162q-46 0 -74.5 -19.5t-48.5 -53.5t-37.5 -79.5t-41.5 -97.5v285q8 -6 14 -12t13 -11.5t16.5 -9
t22.5 -3.5q14 0 27.5 5.5t29 12.5t35 12.5t44.5 5.5h372l-364 -678h162z" />
  </font>
</defs>
</svg>
